<?xml version="1.0" encoding="UTF-8"?>
<svg version="1.1" xmlns="http://www.w3.org/2000/svg" width="254" height="91">
<path d="M0 0 C0.95357832 0.00223072 1.90715664 0.00446144 2.88963127 0.00675976 C3.89433401 0.00519977 4.89903675 0.00363978 5.93418503 0.00203252 C9.32836527 -0.00198219 12.72250142 0.00121398 16.11668205 0.00434887 C18.53882181 0.00299504 20.96096136 0.00121521 23.38310051 -0.00096118 C29.29556338 -0.00506156 35.20801464 -0.00444222 41.1204772 -0.00154854 C45.92355485 0.00070532 50.72662893 0.00101809 55.52970695 -0.00007236 C56.55317893 -0.00030221 56.55317893 -0.00030221 57.59732711 -0.0005367 C58.98322185 -0.00085641 60.36911659 -0.00118062 61.75501132 -0.00150929 C74.7656437 -0.00436421 87.77626905 -0.00107687 100.78690028 0.00429107 C111.96258627 0.00875912 123.13826188 0.00798319 134.31394768 0.00337231 C147.27645667 -0.00197324 160.23895948 -0.00408952 173.20146942 -0.00101542 C174.582407 -0.00069686 175.96334457 -0.00038249 177.34428215 -0.00007236 C178.02381758 0.00008192 178.703353 0.00023619 179.40348041 0.00039514 C184.20353269 0.00126036 189.00358106 -0.00020267 193.80363274 -0.00255191 C200.25823581 -0.00564133 206.71282384 -0.0034574 213.16742516 0.00234234 C215.5439151 0.00367066 217.92040668 0.00327463 220.29689598 0.00107968 C223.52607274 -0.00162903 226.75518523 0.00174586 229.98435783 0.00675976 C231.41472531 0.00341368 231.41472531 0.00341368 232.87398911 0 C239.32284475 0.0195936 239.32284475 0.0195936 240.43699455 1.13374341 C240.43699455 3.77374341 240.43699455 6.41374341 240.43699455 9.13374341 C158.59699455 9.13374341 76.75699455 9.13374341 -7.56300545 9.13374341 C-7.56300545 0.02297873 -7.56300545 0.02297873 0 0 Z " fill="#1D1D1D" transform="translate(11.563005447387695,5.866256594657898)"/>
<path d="M0 0 C21.45 0 42.9 0 65 0 C65 2.97 65 5.94 65 9 C43.55 9 22.1 9 0 9 C0 6.03 0 3.06 0 0 Z " fill="#1F1F1F" transform="translate(187,77)"/>
<path d="M0 0 C21.45 0 42.9 0 65 0 C65 2.97 65 5.94 65 9 C43.55 9 22.1 9 0 9 C0 6.03 0 3.06 0 0 Z " fill="#1F1F1F" transform="translate(4,77)"/>
<path d="M0 0 C5.0428125 -0.0928125 5.0428125 -0.0928125 10.1875 -0.1875 C11.76374146 -0.22846802 11.76374146 -0.22846802 13.37182617 -0.27026367 C22.22819256 -0.3492398 22.22819256 -0.3492398 26 3 C27.05543562 6.30703161 27.34452118 8.12721302 26.0625 11.375 C25.5365625 12.179375 25.5365625 12.179375 25 13 C25.495 13.53625 25.99 14.0725 26.5 14.625 C28.45380713 17.71852796 28.51518691 19.39369166 28 23 C26.73828125 25.671875 26.73828125 25.671875 24 28 C19.90170749 28.63680504 15.88467823 28.46720816 11.75 28.3125 C5.93375 28.1578125 5.93375 28.1578125 0 28 C0 18.76 0 9.52 0 0 Z M6 6 C6 7.65 6 9.3 6 11 C10.29 11 14.58 11 19 11 C19.33 9.68 19.66 8.36 20 7 C18.88873341 5.66098208 18.88873341 5.66098208 16.05859375 5.90234375 C14.86363281 5.91394531 13.66867188 5.92554688 12.4375 5.9375 C11.23996094 5.94652344 10.04242188 5.95554687 8.80859375 5.96484375 C7.41833984 5.98224609 7.41833984 5.98224609 6 6 Z M6 17 C5.83333333 19.5 5.83333333 19.5 6 22 C7.64745596 23.64745596 9.55335451 23.1709616 11.8125 23.1875 C12.68519531 23.20167969 13.55789062 23.21585938 14.45703125 23.23046875 C17.10919085 22.99010406 18.72464999 22.34187309 21 21 C20.73323796 19.01508358 20.73323796 19.01508358 20 17 C17.02119115 16.00706372 14.98398802 15.86593589 11.875 15.875 C10.54082031 15.87113281 10.54082031 15.87113281 9.1796875 15.8671875 C7.02208912 15.75698015 7.02208912 15.75698015 6 17 Z " fill="#F4AA7C" transform="translate(111,31)"/>
<path d="M0 0 C9 0 9 0 11.9609375 2.921875 C12.79713658 4.17749254 13.60149058 5.45482144 14.375 6.75 C14.99181641 7.70132813 14.99181641 7.70132813 15.62109375 8.671875 C16.39012663 9.85880678 17.1462949 11.05425947 17.88427734 12.26074219 C19.15539006 14.24223168 20.58750925 16.116679 22 18 C22.33 12.06 22.66 6.12 23 0 C25.31 0 27.62 0 30 0 C30 9.24 30 18.48 30 28 C21 28 21 28 18.328125 25.62109375 C17.64234375 24.57050781 16.9565625 23.51992188 16.25 22.4375 C15.55390625 21.40496094 14.8578125 20.37242188 14.140625 19.30859375 C13.43421875 18.21675781 12.7278125 17.12492187 12 16 C10.35 13.69 8.7 11.38 7 9 C6.67 15.27 6.34 21.54 6 28 C4.02 28 2.04 28 0 28 C0 18.76 0 9.52 0 0 Z " fill="#F4B68D" transform="translate(180,31)"/>
<path d="M0 0 C5.0428125 -0.0928125 5.0428125 -0.0928125 10.1875 -0.1875 C11.76374146 -0.22846802 11.76374146 -0.22846802 13.37182617 -0.27026367 C22.10553644 -0.34814602 22.10553644 -0.34814602 26 3 C28.35620437 6.53430656 28.48991613 7.83571287 28 12 C26 15.375 26 15.375 24 18 C24.3609375 18.55429687 24.721875 19.10859375 25.09375 19.6796875 C25.5578125 20.40414062 26.021875 21.12859375 26.5 21.875 C27.19609375 22.95394531 27.19609375 22.95394531 27.90625 24.0546875 C29 26 29 26 29 28 C25.8125 28.5 25.8125 28.5 22 28 C20.80859375 26.25390625 20.80859375 26.25390625 19.75 24.0625 C18.6819295 21.80127062 18.6819295 21.80127062 17 20 C13.31814703 18.99206011 9.80237953 18.89345346 6 19 C6 21.97 6 24.94 6 28 C4.02 28 2.04 28 0 28 C0 18.76 0 9.52 0 0 Z M6 7 C5.83333333 9.5 5.83333333 9.5 6 12 C7.80746134 13.80746134 10.50445781 13.17303483 12.9375 13.1875 C14.01902344 13.20167969 15.10054687 13.21585938 16.21484375 13.23046875 C19.14044315 13.29048031 19.14044315 13.29048031 21 11 C21 9.68 21 8.36 21 7 C18.25494537 5.62747269 15.99672588 5.86770745 12.9375 5.875 C11.85339844 5.87242188 10.76929687 5.86984375 9.65234375 5.8671875 C7.07756602 5.69881436 7.07756602 5.69881436 6 7 Z " fill="#F6A572" transform="translate(78,31)"/>
<path d="M0 0 C2.64 0 5.28 0 8 0 C9.8564979 3.66362085 11.70776879 7.3298296 13.55419922 10.99853516 C14.18329431 12.24665722 14.81382241 13.49405805 15.44580078 14.74072266 C16.35303597 16.53098111 17.25472596 18.32404628 18.15625 20.1171875 C18.70087891 21.19597168 19.24550781 22.27475586 19.80664062 23.38623047 C21 26 21 26 21 28 C18.69 28 16.38 28 14 28 C13.34 26.02 12.68 24.04 12 22 C6.72 22 1.44 22 -4 22 C-4.66 23.98 -5.32 25.96 -6 28 C-7.98 28.33 -9.96 28.66 -12 29 C-13 26 -13 26 -11.92016602 23.27270508 C-11.37030029 22.19915771 -10.82043457 21.12561035 -10.25390625 20.01953125 C-9.36928711 18.27446289 -9.36928711 18.27446289 -8.46679688 16.49414062 C-7.8322452 15.26681644 -7.19747676 14.03960431 -6.5625 12.8125 C-5.93072804 11.57403282 -5.29985725 10.33510548 -4.66992188 9.09570312 C-3.12210641 6.05914911 -1.56516863 3.02763591 0 0 Z M3 7 C2.01 9.97 1.02 12.94 0 16 C2.64 16 5.28 16 8 16 C6.81323934 11.89198233 6.10551666 10.10551666 3 7 Z " fill="#F6A974" transform="translate(155,31)"/>
<path d="M0 0 C1.98 0 3.96 0 6 0 C6.04898438 1.09699219 6.09796875 2.19398437 6.1484375 3.32421875 C6.22350591 4.77866925 6.29905197 6.23309516 6.375 7.6875 C6.4059375 8.40873047 6.436875 9.12996094 6.46875 9.87304688 C6.6912939 13.93447311 7.05279622 17.33673533 9 21 C12.09173752 22.54586876 14.59429552 22.29359521 18 22 C20.36373524 20.62480256 20.36373524 20.62480256 22 18 C22.62524235 14.92260037 22.69614363 11.88346162 22.75 8.75 C22.77964844 7.90953125 22.80929688 7.0690625 22.83984375 6.203125 C22.91031636 4.1359285 22.95744939 2.06795967 23 0 C24.98 0 26.96 0 29 0 C29.11689626 3.37470504 29.18747934 6.7488843 29.25 10.125 C29.30027344 11.55199219 29.30027344 11.55199219 29.3515625 13.0078125 C29.43493939 19.0109489 29.05953475 22.46157277 25 27 C19.75757492 29.68217097 13.66771065 29.8409587 7.97265625 28.53515625 C4.86308593 27.42412584 3.17479514 26.25631214 1.31640625 23.53125 C-0.44911229 18.79525962 -0.32670355 14.62918899 -0.1875 9.625 C-0.17396484 8.69816406 -0.16042969 7.77132812 -0.14648438 6.81640625 C-0.11133881 4.54366002 -0.06214132 2.27214153 0 0 Z " fill="#F7B58A" transform="translate(44,31)"/>
<path d="M0 0 C2.60444348 -0.05394705 5.20776998 -0.09364469 7.8125 -0.125 C8.55048828 -0.14175781 9.28847656 -0.15851562 10.04882812 -0.17578125 C13.91246426 -0.21074628 15.70903668 -0.19397555 19 2 C19.7192716 7.27465841 18.55274852 8.89450296 16 14 C10.72 14 5.44 14 0 14 C-0.33 16.31 -0.66 18.62 -1 21 C4.94 21 10.88 21 17 21 C17 18.69 17 16.38 17 14 C17.66 14 18.32 14 19 14 C20.03595522 18.02871475 19.86988854 19.65055731 19 24 C11.41 24 3.82 24 -4 24 C-4.33 18.72 -4.66 13.44 -5 8 C-4.01 7.67 -3.02 7.34 -2 7 C-1.67 7.99 -1.34 8.98 -1 10 C3.95 10.33 8.9 10.66 14 11 C14.33 8.69 14.66 6.38 15 4 C11.68455701 2.89485234 8.79589889 2.67892369 5.3125 2.4375 C4.13300781 2.35371094 2.95351562 2.26992188 1.73828125 2.18359375 C0.83464844 2.12300781 -0.06898437 2.06242187 -1 2 C-0.67 1.34 -0.34 0.68 0 0 Z " fill="#FA9250" transform="translate(117,33)"/>
<path d="M0 0 C1.98 0 3.96 0 6 0 C6.04898438 1.09699219 6.09796875 2.19398437 6.1484375 3.32421875 C6.22350591 4.77866925 6.29905197 6.23309516 6.375 7.6875 C6.4059375 8.40873047 6.436875 9.12996094 6.46875 9.87304688 C6.68887634 13.89035257 6.90727345 17.45846276 9 21 C10.92492357 22.02160437 10.92492357 22.02160437 13.125 22.3125 C14.40375 22.539375 15.6825 22.76625 17 23 C17 23.33 17 23.66 17 24 C9.25 24.125 9.25 24.125 7 23 C7 24.32 7 25.64 7 27 C10.96 27.33 14.92 27.66 19 28 C19 28.33 19 28.66 19 29 C12.88675433 29.37428035 8.32646577 29.19587946 3 26 C-0.61500218 20.69911514 -0.35888114 15.78593243 -0.1875 9.625 C-0.17396484 8.69816406 -0.16042969 7.77132812 -0.14648438 6.81640625 C-0.11133881 4.54366002 -0.06214132 2.27214153 0 0 Z " fill="#F0B089" transform="translate(44,31)"/>
<path d="M0 0 C0.69287109 0.00451172 1.38574219 0.00902344 2.09960938 0.01367188 C3.79561068 0.02536844 5.49156703 0.04330076 7.1875 0.0625 C7.8475 1.3825 8.5075 2.7025 9.1875 4.0625 C2.5875 3.7325 -4.0125 3.4025 -10.8125 3.0625 C-10.1525 6.0325 -9.4925 9.0025 -8.8125 12.0625 C-4.1925 12.0625 0.4275 12.0625 5.1875 12.0625 C5.1875 12.7225 5.1875 13.3825 5.1875 14.0625 C-0.7525 14.5575 -0.7525 14.5575 -6.8125 15.0625 C-3.8425 15.3925 -0.8725 15.7225 2.1875 16.0625 C2.1875 16.3925 2.1875 16.7225 2.1875 17.0625 C-1.7725 17.0625 -5.7325 17.0625 -9.8125 17.0625 C-9.8125 20.0325 -9.8125 23.0025 -9.8125 26.0625 C-10.8025 26.0625 -11.7925 26.0625 -12.8125 26.0625 C-12.8125 17.8125 -12.8125 9.5625 -12.8125 1.0625 C-8.3994375 0.1798875 -4.45187247 -0.05538215 0 0 Z " fill="#FD904C" transform="translate(92.8125,31.9375)"/>
<path d="M0 0 C0.33 1.32 0.66 2.64 1 4 C0.34 4 -0.32 4 -1 4 C-1.33 5.98 -1.66 7.96 -2 10 C1.96 10 5.92 10 10 10 C10 9.01 10 8.02 10 7 C10.99 7.33 11.98 7.66 13 8 C12.67 8.99 12.34 9.98 12 11 C12.99 11 13.98 11 15 11 C14.67 11.99 14.34 12.98 14 14 C14 13.34 14 12.68 14 12 C13.34 12 12.68 12 12 12 C12 12.66 12 13.32 12 14 C5.73 14 -0.54 14 -7 14 C-7 15.65 -7 17.3 -7 19 C-7.66 19 -8.32 19 -9 19 C-8.28547412 14.23649415 -7.20465156 9.65798604 -6 5 C-5.01 5 -4.02 5 -3 5 C-2.814375 4.0409375 -2.814375 4.0409375 -2.625 3.0625 C-2.41875 2.381875 -2.2125 1.70125 -2 1 C-1.34 0.67 -0.68 0.34 0 0 Z " fill="#F59659" transform="translate(155,38)"/>
<path d="M0 0 C2.31 0 4.62 0 7 0 C7 9.24 7 18.48 7 28 C4.03 28 1.06 28 -2 28 C-4.0625 25.5 -4.0625 25.5 -5 23 C-4.34 23 -3.68 23 -3 23 C-3 23.66 -3 24.32 -3 25 C0.96 25.99 0.96 25.99 5 27 C5 18.75 5 10.5 5 2 C4.01 2 3.02 2 2 2 C2 8.93 2 15.86 2 23 C0.68 22.67 -0.64 22.34 -2 22 C-2.33 20.35 -2.66 18.7 -3 17 C-2.34 17.33 -1.68 17.66 -1 18 C-0.505 9.09 -0.505 9.09 0 0 Z " fill="#F2BB95" transform="translate(203,31)"/>
<path d="M0 0 C0.99 0 1.98 0 3 0 C3 8.25 3 16.5 3 25 C-2 25 -2 25 -5 23 C-5 22.34 -5 21.68 -5 21 C-5.66 21 -6.32 21 -7 21 C-8.32 18.03 -9.64 15.06 -11 12 C-8.6875 12.625 -8.6875 12.625 -6 14 C-4.95191959 15.97522846 -3.9479589 17.97481509 -3 20 C-2.01 20.33 -1.02 20.66 0 21 C0 14.07 0 7.14 0 0 Z " fill="#FA914F" transform="translate(205,33)"/>
<path d="M0 0 C2.31 0 4.62 0 7 0 C6.67 1.32 6.34 2.64 6 4 C5.01 4 4.02 4 3 4 C3.24556641 4.94939453 3.24556641 4.94939453 3.49609375 5.91796875 C4.17453601 10.06751093 4.10555375 14.11641498 4.0625 18.3125 C4.05798828 19.14845703 4.05347656 19.98441406 4.04882812 20.84570312 C4.03710548 22.89716649 4.01917203 24.94859273 4 27 C2.68 27 1.36 27 0 27 C0 18.09 0 9.18 0 0 Z " fill="#EE955F" transform="translate(181,32)"/>
<path d="M0 0 C2.64 0 5.28 0 8 0 C8.66 1.98 9.32 3.96 10 6 C9.01 5.67 8.02 5.34 7 5 C7 4.34 7 3.68 7 3 C5.68 3.33 4.36 3.66 3 4 C3.99 4.6496875 3.99 4.6496875 5 5.3125 C5.66 5.869375 6.32 6.42625 7 7 C7 7.99 7 8.98 7 10 C7.66 10.33 8.32 10.66 9 11 C9 12.98 9 14.96 9 17 C5.37 17 1.74 17 -2 17 C-1.67 15.02 -1.34 13.04 -1 11 C-0.34 11 0.32 11 1 11 C0.67 10.01 0.34 9.02 0 8 C-0.66 8 -1.32 8 -2 8 C-2.33 9.32 -2.66 10.64 -3 12 C-3.66 12 -4.32 12 -5 12 C-3.68938409 7.76570244 -2.05643741 3.92592596 0 0 Z M3 7 C2.01 9.97 1.02 12.94 0 16 C2.64 16 5.28 16 8 16 C6.81323934 11.89198233 6.10551666 10.10551666 3 7 Z " fill="#F6B388" transform="translate(155,31)"/>
<path d="M0 0 C6.93 0 13.86 0 21 0 C21 0.33 21 0.66 21 1 C11.595 1.495 11.595 1.495 2 2 C2 10.25 2 18.5 2 27 C2.99 27 3.98 27 5 27 C5 24.03 5 21.06 5 18 C8.96 18 12.92 18 17 18 C17 18.33 17 18.66 17 19 C13.37 19 9.74 19 6 19 C6 21.97 6 24.94 6 28 C4.02 28 2.04 28 0 28 C0 18.76 0 9.52 0 0 Z " fill="#F5BB97" transform="translate(78,31)"/>
<path d="M0 0 C1.9375 0.625 1.9375 0.625 4 2 C4.99549067 5.2708979 5.32868536 7.16733041 4.0625 10.375 C3.5365625 11.179375 3.5365625 11.179375 3 12 C3.495 12.53625 3.99 13.0725 4.5 13.625 C6.42109443 16.66673285 6.45185216 18.46049143 6 22 C5.01 22.99 4.02 23.98 3 25 C3 21.7 3 18.4 3 15 C2.34 15 1.68 15 1 15 C1 17.31 1 19.62 1 22 C-0.98 22 -2.96 22 -5 22 C-4.01 21.34 -3.02 20.68 -2 20 C-2 19.01 -2 18.02 -2 17 C-5.01490557 15.99503148 -7.04181692 15.89664697 -10.1875 15.9375 C-11.08855469 15.94652344 -11.98960938 15.95554687 -12.91796875 15.96484375 C-13.94857422 15.98224609 -13.94857422 15.98224609 -15 16 C-15 17.98 -15 19.96 -15 22 C-15.66 22 -16.32 22 -17 22 C-17.04241723 19.66705225 -17.04092937 17.33297433 -17 15 C-16 14 -16 14 -12.40234375 13.90234375 C-10.91403133 13.9090178 -9.42573568 13.92097817 -7.9375 13.9375 C-6.79958008 13.94426758 -6.79958008 13.94426758 -5.63867188 13.95117188 C-3.75908129 13.9629932 -1.87953101 13.98092922 0 14 C1.68610848 10.10336348 2.19834137 7.26433935 2 3 C1.34 2.67 0.68 2.34 0 2 C0 1.34 0 0.68 0 0 Z " fill="#F3BB95" transform="translate(133,32)"/>
<path d="M0 0 C2.97 0.33 5.94 0.66 9 1 C10.125 6.75 10.125 6.75 9 9 C9.33 9.99 9.66 10.98 10 12 C6 12 6 12 4.25 10.5 C3.8375 10.005 3.425 9.51 3 9 C3 9.99 3 10.98 3 12 C2.01 12 1.02 12 0 12 C0 8.04 0 4.08 0 0 Z M3 3 C3 4.32 3 5.64 3 7 C4.32 6.67 5.64 6.34 7 6 C6.67 5.01 6.34 4.02 6 3 C5.01 3 4.02 3 3 3 Z " fill="#93A69F" transform="translate(109,74)"/>
<path d="M0 0 C7.23396457 0.35003054 7.23396457 0.35003054 10.0625 2.75 C11.26141865 5.62740477 10.9997146 7.07775733 10 10 C8 12 8 12 5.8359375 12.1953125 C4.61777344 12.16050781 4.61777344 12.16050781 3.375 12.125 C2.55773437 12.10695313 1.74046875 12.08890625 0.8984375 12.0703125 C0.27195313 12.04710938 -0.35453125 12.02390625 -1 12 C-1.02687279 10.18757948 -1.04633715 8.37504767 -1.0625 6.5625 C-1.07410156 5.55316406 -1.08570313 4.54382813 -1.09765625 3.50390625 C-1 1 -1 1 0 0 Z M2 3 C2 5.31 2 7.62 2 10 C3.65 9.67 5.3 9.34 7 9 C7.6814823 7.10820797 7.6814823 7.10820797 8 5 C7.34 4.34 6.68 3.68 6 3 C4.68 3 3.36 3 2 3 Z " fill="#728B82" transform="translate(149,74)"/>
<path d="M0 0 C2.05078125 0.03255208 4.1015625 0.06510417 6.15234375 0.09765625 C6.15234375 1.08765625 6.15234375 2.07765625 6.15234375 3.09765625 C4.17234375 3.09765625 2.19234375 3.09765625 0.15234375 3.09765625 C0.15234375 3.75765625 0.15234375 4.41765625 0.15234375 5.09765625 C2.13234375 5.09765625 4.11234375 5.09765625 6.15234375 5.09765625 C6.15234375 6.08765625 6.15234375 7.07765625 6.15234375 8.09765625 C4.17234375 8.09765625 2.19234375 8.09765625 0.15234375 8.09765625 C0.15234375 8.75765625 0.15234375 9.41765625 0.15234375 10.09765625 C2.46234375 10.09765625 4.77234375 10.09765625 7.15234375 10.09765625 C7.15234375 10.75765625 7.15234375 11.41765625 7.15234375 12.09765625 C3.85234375 12.09765625 0.55234375 12.09765625 -2.84765625 12.09765625 C-2.87452904 10.28523573 -2.8939934 8.47270392 -2.91015625 6.66015625 C-2.92175781 5.65082031 -2.93335937 4.64148438 -2.9453125 3.6015625 C-2.81063978 0.1485539 -2.81063978 0.1485539 0 0 Z " fill="#9BB2AB" transform="translate(124.84765625,73.90234375)"/>
<path d="M0 0 C0.66 0 1.32 0 2 0 C2 1.65 2 3.3 2 5 C3.65 5 5.3 5 7 5 C7.33 3.35 7.66 1.7 8 0 C8.66 0 9.32 0 10 0 C10 3.96 10 7.92 10 12 C9.01 12 8.02 12 7 12 C7 10.68 7 9.36 7 8 C5.35 8 3.7 8 2 8 C2 9.32 2 10.64 2 12 C1.01 12 0.02 12 -1 12 C-1.02687279 10.18757948 -1.04633715 8.37504767 -1.0625 6.5625 C-1.07410156 5.55316406 -1.08570312 4.54382813 -1.09765625 3.50390625 C-1 1 -1 1 0 0 Z " fill="#90A79F" transform="translate(95,74)"/>
<path d="M0 0 C3 1 3 1 4.16796875 2.99609375 C4.50441406 3.80175781 4.84085938 4.60742188 5.1875 5.4375 C5.53167969 6.24058594 5.87585938 7.04367188 6.23046875 7.87109375 C7 10 7 10 7 12 C2.545 11.01 2.545 11.01 -2 10 C-2 10.66 -2 11.32 -2 12 C-2.99 12 -3.98 12 -5 12 C-4.54738642 10.56068883 -4.08767021 9.12361001 -3.625 7.6875 C-3.24214844 6.48673828 -3.24214844 6.48673828 -2.8515625 5.26171875 C-2 3 -2 3 0 0 Z M0 5 C0 5.66 0 6.32 0 7 C0.66 6.67 1.32 6.34 2 6 C1.34 5.67 0.68 5.34 0 5 Z " fill="#587167" transform="translate(139,74)"/>
<path d="M0 0 C0 0.99 0 1.98 0 3 C-1.65 2.67 -3.3 2.34 -5 2 C-5 2.66 -5 3.32 -5 4 C-3.35 4.33 -1.7 4.66 0 5 C0.33 6.32 0.66 7.64 1 9 C-1.1875 10.625 -1.1875 10.625 -4 12 C-6.8125 11.1875 -6.8125 11.1875 -9 10 C-8.67 9.01 -8.34 8.02 -8 7 C-5.525 7.99 -5.525 7.99 -3 9 C-3 8.34 -3 7.68 -3 7 C-5.475 6.01 -5.475 6.01 -8 5 C-7.625 2.5625 -7.625 2.5625 -7 0 C-4.3333581 -1.33332095 -2.83319697 -0.67102033 0 0 Z " fill="#798F87" transform="translate(171,75)"/>
<path d="M0 0 C0 1.32 0 2.64 0 4 C-0.99 4 -1.98 4 -3 4 C-3 4.66 -3 5.32 -3 6 C-7.38436379 8.19218189 -13.36901402 7.15774649 -18 6 C-18 4.68 -18 3.36 -18 2 C-17.02160156 2.03480469 -17.02160156 2.03480469 -16.0234375 2.0703125 C-10.37349278 2.18697803 -5.31961226 0 0 0 Z " fill="#F3955A" transform="translate(69,52)"/>
<path d="M0 0 C1.32 0 2.64 0 4 0 C4 5.61 4 11.22 4 17 C2.68 17.33 1.36 17.66 0 18 C0 12.06 0 6.12 0 0 Z " fill="#F69356" transform="translate(68,32)"/>
<path d="M0 0 C1.22419163 3.93795909 0.48320272 6.16112237 -1 10 C-0.34 10 0.32 10 1 10 C1 8.35 1 6.7 1 5 C7.27 5 13.54 5 20 5 C20 5.33 20 5.66 20 6 C14.72 6 9.44 6 4 6 C3.34 7.98 2.68 9.96 2 12 C0.02 12.33 -1.96 12.66 -4 13 C-5 10 -5 10 -4.00390625 7.51953125 C-3.52824219 6.62621094 -3.05257812 5.73289062 -2.5625 4.8125 C-2.08941406 3.91144531 -1.61632812 3.01039062 -1.12890625 2.08203125 C-0.75636719 1.39496094 -0.38382813 0.70789062 0 0 Z " fill="#F4C4A2" transform="translate(147,47)"/>
<path d="M0 0 C0.99 0 1.98 0 3 0 C3.33 6.93 3.66 13.86 4 21 C2.68 21 1.36 21 0 21 C0 14.07 0 7.14 0 0 Z " fill="#FA9250" transform="translate(46,33)"/>
<path d="M0 0 C2.97 0 5.94 0 9 0 C9.33 0.99 9.66 1.98 10 3 C8.68 3 7.36 3 6 3 C6 5.97 6 8.94 6 12 C5.01 12 4.02 12 3 12 C3 9.03 3 6.06 3 3 C2.01 3 1.02 3 0 3 C0 2.01 0 1.02 0 0 Z " fill="#889B96" transform="translate(82,74)"/>
<path d="M0 0 C1.98 0 3.96 0 6 0 C5.67 0.99 5.34 1.98 5 3 C4.01 3 3.02 3 2 3 C2 9.6 2 16.2 2 23 C1.34 23 0.68 23 0 23 C0 15.41 0 7.82 0 0 Z " fill="#FD904D" transform="translate(182,33)"/>
<path d="M0 0 C0.268125 0.61875 0.53625 1.2375 0.8125 1.875 C1.95556848 4.2995233 1.95556848 4.2995233 5 6 C6.9896995 6.39013716 8.99019869 6.73202649 11 7 C11 7.33 11 7.66 11 8 C3.25 8.125 3.25 8.125 1 7 C1 8.32 1 9.64 1 11 C4.96 11.33 8.92 11.66 13 12 C13 12.33 13 12.66 13 13 C6.86520402 13.37559975 2.41507781 13.04598127 -3 10 C-3.33 9.01 -3.66 8.02 -4 7 C-2.68 7 -1.36 7 0 7 C-0.185625 6.401875 -0.37125 5.80375 -0.5625 5.1875 C-1 3 -1 3 0 0 Z " fill="#F6B990" transform="translate(50,47)"/>
<path d="M0 0 C0.33 0 0.66 0 1 0 C1.33 1.98 1.66 3.96 2 6 C6.62 6 11.24 6 16 6 C16 6.66 16 7.32 16 8 C10.06 8.495 10.06 8.495 4 9 C6.97 9.33 9.94 9.66 13 10 C13 10.33 13 10.66 13 11 C9.04 11 5.08 11 1 11 C1 13.97 1 16.94 1 20 C0.01 19.67 -0.98 19.34 -2 19 C-1.34 19 -0.68 19 0 19 C0 12.73 0 6.46 0 0 Z " fill="#F1955C" transform="translate(82,38)"/>
<path d="M0 0 C0.66 0 1.32 0 2 0 C2 0.99 2 1.98 2 3 C3.1446875 3.12375 3.1446875 3.12375 4.3125 3.25 C7.52373261 4.14615794 8.29374499 5.21611025 10 8 C9.67 8.66 9.34 9.32 9 10 C8.01 9.67 7.02 9.34 6 9 C6.66 11.31 7.32 13.62 8 16 C4.12856412 12.68162639 1.74592177 8.75485077 0 4 C0 2.68 0 1.36 0 0 Z " fill="#F6A46F" transform="translate(190,38)"/>
<path d="M0 0 C0.66 0 1.32 0 2 0 C2 0.66 2 1.32 2 2 C2.66 2.33 3.32 2.66 4 3 C4.66 3.66 5.32 4.32 6 5 C6.66 3.68 7.32 2.36 8 1 C12 6.75 12 6.75 12 9 C8.8125 9.5 8.8125 9.5 5 9 C2.96268906 6.74584656 0 3.19407027 0 0 Z " fill="#F5AD81" transform="translate(95,50)"/>
<path d="M0 0 C0.99 0.33 1.98 0.66 3 1 C2.67 1.99 2.34 2.98 2 4 C2.99 4 3.98 4 5 4 C4.67 4.99 4.34 5.98 4 7 C4 6.34 4 5.68 4 5 C3.01 5.495 3.01 5.495 2 6 C-0.71760108 6.07181821 -3.40859388 6.09299506 -6.125 6.0625 C-6.87910156 6.05798828 -7.63320312 6.05347656 -8.41015625 6.04882812 C-10.27347127 6.03703499 -12.13674555 6.01909942 -14 6 C-11.41073669 3.41073669 -9.97294721 3.62601957 -6.375 3.375 C-5.37210938 3.30023438 -4.36921875 3.22546875 -3.3359375 3.1484375 C-2.56507813 3.09945312 -1.79421875 3.05046875 -1 3 C-0.67 2.01 -0.34 1.02 0 0 Z " fill="#FB9049" transform="translate(165,45)"/>
<path d="M0 0 C2.64 0 5.28 0 8 0 C8 0.99 8 1.98 8 3 C6.02 3 4.04 3 2 3 C2 3.99 2 4.98 2 6 C3.65 6 5.3 6 7 6 C7 6.33 7 6.66 7 7 C5.02 7 3.04 7 1 7 C0.67 7.99 0.34 8.98 0 10 C0 6.7 0 3.4 0 0 Z " fill="#658078" transform="translate(123,74)"/>
<path d="M0 0 C1.32 0 2.64 0 4 0 C4 0.66 4 1.32 4 2 C4.99 2.33 5.98 2.66 7 3 C7.33 5.31 7.66 7.62 8 10 C7.34 10 6.68 10 6 10 C6 9.34 6 8.68 6 8 C5.01 7.67 4.02 7.34 3 7 C2.65657551 5.66923011 2.32380126 4.33568021 2 3 C1.01 2.34 0.02 1.68 -1 1 C-0.67 0.67 -0.34 0.34 0 0 Z " fill="#F89252" transform="translate(158,34)"/>
<path d="M0 0 C1.875 0.125 1.875 0.125 4 1 C5.25 4.0625 5.25 4.0625 6 7 C3.69 7 1.38 7 -1 7 C-0.67 4.69 -0.34 2.38 0 0 Z " fill="#F1A370" transform="translate(170,52)"/>
<path d="M0 0 C1.32 0.66 2.64 1.32 4 2 C4 2.99 4 3.98 4 5 C-2.65637843 6.23839599 -9.2471936 6.09139136 -16 6 C-16 5.34 -16 4.68 -16 4 C-7.585 3.505 -7.585 3.505 1 3 C0.67 2.01 0.34 1.02 0 0 Z " fill="#F7BD97" transform="translate(100,32)"/>
<path d="M0 0 C4.95 0 9.9 0 15 0 C15.66 1.32 16.32 2.64 17 4 C11.25 4.125 11.25 4.125 9 3 C9 2.34 9 1.68 9 1 C6.03 1 3.06 1 0 1 C0 0.67 0 0.34 0 0 Z " fill="#F59454" transform="translate(85,32)"/>
<path d="M0 0 C0.99 0.33 1.98 0.66 3 1 C4.17755913 3.94389782 4.03348696 4.89953913 3 8 C0.03 7.505 0.03 7.505 -3 7 C-1.125 1.125 -1.125 1.125 0 0 Z M0 5 C0 5.66 0 6.32 0 7 C0.66 6.67 1.32 6.34 2 6 C1.34 5.67 0.68 5.34 0 5 Z " fill="#8DA59D" transform="translate(139,74)"/>
<path d="M0 0 C1.32 0.33 2.64 0.66 4 1 C3.01 1 2.02 1 1 1 C1 2.65 1 4.3 1 6 C2.65 6 4.3 6 6 6 C6 6.99 6 7.98 6 9 C4.68 8.67 3.36 8.34 2 8 C2 8.99 2 9.98 2 11 C1.34 11 0.68 11 0 11 C0 7.37 0 3.74 0 0 Z " fill="#51685F" transform="translate(110,75)"/>
<path d="M0 0 C0.66 0 1.32 0 2 0 C2 3.96 2 7.92 2 12 C1.34 12 0.68 12 0 12 C0 10.35 0 8.7 0 7 C-1.65 7 -3.3 7 -5 7 C-5 6.67 -5 6.34 -5 6 C-3.35 6 -1.7 6 0 6 C0 4.02 0 2.04 0 0 Z " fill="#617D72" transform="translate(103,74)"/>
<path d="M0 0 C0.99 0.33 1.98 0.66 3 1 C2.25 5.75 2.25 5.75 0 8 C-3.125 7.625 -3.125 7.625 -6 7 C-5.071875 6.6596875 -5.071875 6.6596875 -4.125 6.3125 C-1.38589791 4.62070165 -0.94975528 3.00755839 0 0 Z " fill="#718A80" transform="translate(157,78)"/>
<path d="M0 0 C0.66 0.33 1.32 0.66 2 1 C1.67 2.98 1.34 4.96 1 7 C-0.32 7 -1.64 7 -3 7 C-3.1875 4.625 -3.1875 4.625 -3 2 C-2.01 1.34 -1.02 0.68 0 0 Z " fill="#F59354" transform="translate(103,36)"/>
<path d="M0 0 C1.77119803 0.14133499 3.54195287 0.28823208 5.3125 0.4375 C6.29863281 0.51871094 7.28476562 0.59992187 8.30078125 0.68359375 C11 1 11 1 14 2 C9.22426677 4.61895048 5.15565119 3.83119431 0 3 C0 2.01 0 1.02 0 0 Z " fill="#FC904C" transform="translate(51,54)"/>
<path d="M0 0 C2.64465038 3.1254959 3.84414715 6.08788267 5 10 C4.34 10 3.68 10 3 10 C3 9.34 3 8.68 3 8 C2.01 8 1.02 8 0 8 C-0.33 8.99 -0.66 9.98 -1 11 C-1 9.68 -1 8.36 -1 7 C-0.34 7 0.32 7 1 7 C0.67 4.69 0.34 2.38 0 0 Z " fill="#F4B081" transform="translate(165,37)"/>
<path d="M0 0 C1.32 0 2.64 0 4 0 C3.814375 0.928125 3.62875 1.85625 3.4375 2.8125 C2.75876119 6.01343771 2.75876119 6.01343771 4 9 C2.68 9 1.36 9 0 9 C0.33 7.35 0.66 5.7 1 4 C0.34 3.67 -0.32 3.34 -1 3 C-0.34 3 0.32 3 1 3 C0.67 2.01 0.34 1.02 0 0 Z " fill="#98ADA5" transform="translate(115,77)"/>
<path d="M0 0 C1.98 0.66 3.96 1.32 6 2 C6.33 1.34 6.66 0.68 7 0 C7 1.32 7 2.64 7 4 C4.39417629 4.93065133 3.35801776 5.14917407 0.75 4.0625 C0.1725 3.711875 -0.405 3.36125 -1 3 C-0.67 2.01 -0.34 1.02 0 0 Z " fill="#778D83" transform="translate(163,82)"/>
<path d="M0 0 C1.27875 0.103125 2.5575 0.20625 3.875 0.3125 C4.95394531 0.39951172 4.95394531 0.39951172 6.0546875 0.48828125 C8 1 8 1 10 4 C7 5 7 5 4.4375 4.25 C2 3 2 3 0 0 Z " fill="#8CA29B" transform="translate(149,74)"/>
<path d="M0 0 C0.99 0.33 1.98 0.66 3 1 C3.1875 3.8125 3.1875 3.8125 3 7 C2.01 7.99 1.02 8.98 0 10 C0 6.7 0 3.4 0 0 Z " fill="#F3B68C" transform="translate(136,47)"/>
<path d="M0 0 C2.64 0 5.28 0 8 0 C8.66 1.98 9.32 3.96 10 6 C9.01 5.67 8.02 5.34 7 5 C7 4.34 7 3.68 7 3 C4.69 2.67 2.38 2.34 0 2 C0 1.34 0 0.68 0 0 Z " fill="#F9BF9B" transform="translate(155,31)"/>
<path d="M0 0 C0.66 0 1.32 0 2 0 C2 0.66 2 1.32 2 2 C2.99 2.33 3.98 2.66 5 3 C6.1875 6.5625 6.1875 6.5625 7 10 C3.66442368 7.0094833 1.84916079 4.06815373 0 0 Z " fill="#F6BE98" transform="translate(191,44)"/>
<path d="M0 0 C0.33 0.66 0.66 1.32 1 2 C3.31 2 5.62 2 8 2 C7.67 2.66 7.34 3.32 7 4 C5.35 3.67 3.7 3.34 2 3 C2 3.66 2 4.32 2 5 C1.01 5 0.02 5 -1 5 C-0.67 3.35 -0.34 1.7 0 0 Z " fill="#8AA098" transform="translate(135,81)"/>
<path d="M0 0 C1.65 0 3.3 0 5 0 C5.33 1.32 5.66 2.64 6 4 C5.01 4 4.02 4 3 4 C2.67 3.34 2.34 2.68 2 2 C1.34 2 0.68 2 0 2 C0 1.34 0 0.68 0 0 Z " fill="#869A91" transform="translate(166,80)"/>
<path d="M0 0 C1.5 1.375 1.5 1.375 3 3 C3 3.66 3 4.32 3 5 C0.69 5 -1.62 5 -4 5 C-4.33 4.34 -4.66 3.68 -5 3 C-2.525 3.495 -2.525 3.495 0 4 C0 2.68 0 1.36 0 0 Z " fill="#EBBB9B" transform="translate(104,54)"/>
<path d="M0 0 C0.33 0.99 0.66 1.98 1 3 C1.99 3.33 2.98 3.66 4 4 C3.34 5.65 2.68 7.3 2 9 C0.14223235 5.86501708 -0.20140476 3.62528568 0 0 Z M-1 9 C1 10 1 10 1 10 Z " fill="#F39459" transform="translate(132,37)"/>
</svg>
